HIERARCHY
ROOT Hips
{
  OFFSET 0.382225 96.6805 0.598322
  CHANNELS 6 Xposition Yposition Zposition Zrotation Xrotation Yrotation
  JOINT Spine
  {
    OFFSET 10.8089 -0.851416 0
    CHANNELS 3 Zrotation Xrotation Yrotation
    JOINT Spine1
    {
      OFFSET 18.8753 3.80116 0
      CHANNELS 3 Zrotation Xrotation Yrotation
      JOINT Spine2
      {
        OFFSET 13.4073 0.420477 0
        CHANNELS 3 Zrotation Xrotation Yrotation
        JOINT LeftShoulder
        {
          OFFSET 11.8837 -2.73209 -3.78198
          CHANNELS 3 Zrotation Xrotation Yrotation
          JOINT LeftArm
          {
            OFFSET 15.7849 0 -2.35849e-005
            CHANNELS 3 Zrotation Xrotation Yrotation
            JOINT LeftForeArm
            {
              OFFSET 30.3399 0 0
              CHANNELS 3 Zrotation Xrotation Yrotation
              JOINT LeftHand
              {
                OFFSET 26.9751 0 2.45913e-005
                CHANNELS 3 Zrotation Xrotation Yrotation
                End Site
                {
                  OFFSET 8 0 0
                }
              }
            }
          }
        }
        JOINT RightShoulder
        {
          OFFSET 11.8838 -2.7321 3.782
          CHANNELS 3 Zrotation Xrotation Yrotation
          JOINT RightArm
          {
            OFFSET -15.7848 0 -1.07056e-005
            CHANNELS 3 Zrotation Xrotation Yrotation
            JOINT RightForeArm
            {
              OFFSET -30.34 1.02096e-005 -2.53607e-005
              CHANNELS 3 Zrotation Xrotation Yrotation
              JOINT RightHand
              {
                OFFSET -26.9752 2.07668e-005 0
                CHANNELS 3 Zrotation Xrotation Yrotation
                End Site
                {
                  OFFSET -8 0 0
                }
              }
            }
          }
        }
        JOINT Neck
        {
          OFFSET 16.5588 -0.355318 0
          CHANNELS 3 Zrotation Xrotation Yrotation
          JOINT Head
          {
            OFFSET 9.28361 0.364157 0
            CHANNELS 3 Zrotation Xrotation Yrotation
            End Site
            {
              OFFSET 0 0 0
            }
          }
        }
      }
    }
  }
  JOINT LeftUpLeg
  {
    OFFSET -1.44883 -0.531424 -9.00581
    CHANNELS 3 Zrotation Xrotation Yrotation
    JOINT LeftLeg
    {
      OFFSET -42.572 0.0788889 -0.011964
      CHANNELS 3 Zrotation Xrotation Yrotation
      JOINT LeftFoot
      {
        OFFSET -40.1967 0 0
        CHANNELS 3 Zrotation Xrotation Yrotation
				JOINT LeftToe
        {
          OFFSET -10.4538 -16.5779 0.0801563
          CHANNELS 3 Zrotation Xrotation Yrotation
          End Site
          {
            OFFSET -1.0 -1.0 0.0
          }
        }
      }
    }
  }
  JOINT RightUpLeg
  {
    OFFSET -1.44865 -0.531427 9.0058
    CHANNELS 3 Zrotation Xrotation Yrotation
    JOINT RightLeg
    {
      OFFSET 42.5723 -3.24776e-005 0
      CHANNELS 3 Zrotation Xrotation Yrotation
      JOINT RightFoot
      {
        OFFSET 40.1968 0 -1.14003e-005
        CHANNELS 3 Zrotation Xrotation Yrotation
				JOINT RightToe
        {
          OFFSET 10.4538 16.5778 -0.0801573
          CHANNELS 3 Zrotation Xrotation Yrotation
          End Site
          {
            OFFSET -1.0 -1.0 0.0
          }
        }
      }
    }
  }
}
MOTION
Frames:	12
Frame Time:	0.0333333
86.8102 96.5749 -8.61008 -51.6647 -82.9543 -143.446 -7.59239 -1.44227 4.16726 19.403 -0.284199 -0.501856 2.7794 1.93418e-006 1.65929e-005 0.134006 18.8791 71.5033 -17.5411 13.1813 11.6894 2.38221 -13.8164 9.00822 -52.5407 -62.9985 -49.2163 -177.292 12.1067 75.8143 -12.7322 -15.6023 13.2489 -7.35998 -7.00997 -0.357679 -5.58429 -63.9369 2.61718 -23.508 4.63459e-006 -5.90926e-006 8.013 -15.4966 2.05944 4.09736 31.3689 -0.90899 -0.181032 -6.08934 2.5284 -1.10685 -6.51878 3.34444 -90 0 0 -169.066 16.0433 -7.22056 -6.74149 -5.80101 1.92516 3.56739 -1.44474 3.53752 -90 0 0
86.1106 96.651 -8.55499 -49.8274 -83.2695 -141.688 -7.61302 -1.70913 4.28736 19.4977 -0.289673 -0.510516 2.7794 1.93418e-006 1.65929e-005 0.103437 18.6169 71.4346 -17.5367 13.4079 11.6626 2.33134 -13.4086 9.05246 -52.9931 -63.3718 -49.5754 -177.31 12.101 75.8742 -12.5268 -15.4697 13.2415 -7.30306 -7.00576 -0.354587 -5.51948 -64.005 2.63046 -23.508 4.63459e-006 -5.90926e-006 8.17914 -15.5592 1.87506 4.31003 31.35 -1.36664 -0.185879 -5.99021 2.58559 -1.55338 -6.72507 3.69453 -90 0 0 -169.321 16.0977 -6.82714 -6.81862 -5.77736 1.90853 3.89859 -1.1842 2.94388 -90 0 0
85.5351 96.7209 -8.52977 -48.1927 -83.5174 -140.189 -7.64747 -1.89947 4.44279 19.5317 -0.292022 -0.514155 2.7794 1.93418e-006 1.65929e-005 0.0710771 18.4679 71.4517 -17.6487 13.5533 11.6749 2.36971 -13.7021 9.0207 -52.567 -63.2147 -49.3219 -177.321 12.1638 75.9069 -12.3853 -15.437 13.299 -7.19371 -6.99764 -0.35122 -5.55226 -63.8925 2.6549 -23.508 4.63459e-006 -5.90926e-006 8.42573 -15.6384 1.79927 4.44198 31.4782 -1.61566 -0.0993381 -5.90952 2.64454 -2.17494 -6.79763 3.91908 -90 0 0 -169.56 16.0755 -6.5673 -6.74388 -5.76173 1.91708 4.07502 -0.935301 2.45078 -90 0 0
85.0893 96.8057 -8.55322 -47.2877 -83.6159 -139.444 -7.67505 -1.94106 4.58532 19.4977 -0.293822 -0.516795 2.7794 1.93418e-006 1.65929e-005 0.0150882 18.3386 71.5787 -17.7144 13.7258 11.6982 2.38794 -13.8397 9.00582 -52.3544 -63.2064 -48.9604 -177.323 12.0825 75.9148 -12.1167 -15.2707 13.4174 -7.18225 -6.9968 -0.348201 -5.67851 -63.9796 2.46969 -23.508 4.63459e-006 -5.90926e-006 8.69286 -15.6271 1.864 5.08221 31.922 -1.91384 -0.88538 -5.87308 2.5706 -2.488 -6.73848 4.02445 -90 0 0 -169.846 16.0754 -6.38728 -6.30339 -5.7531 1.98333 3.96143 -0.769947 2.1251 -90 0 0
84.7683 96.8489 -8.59837 -47.5395 -83.5724 -139.787 -7.75026 -1.8567 4.59303 19.447 -0.295117 -0.518536 2.7794 1.93418e-006 1.65929e-005 -0.0324887 18.2389 71.6966 -17.7248 13.7606 11.8717 2.35283 -13.5595 9.03619 -52.6748 -63.3307 -49.2923 -177.288 11.9496 75.8096 -11.9759 -15.1099 13.5951 -7.10969 -6.9948 -0.346108 -5.52551 -63.857 2.62721 -23.508 4.63459e-006 -5.90926e-006 9.04186 -15.5326 2.1598 5.40991 32.8487 -2.05502 -1.15389 -5.87561 2.54307 -2.76752 -6.59994 4.05679 -90 0 0 -169.909 16.1986 -6.25664 -6.1747 -5.75199 2.00301 3.93958 -0.938899 1.96892 -90 0 0
84.5605 96.8489 -8.66689 -48.4954 -83.4112 -140.71 -7.87167 -1.69903 4.39894 19.4296 -0.295948 -0.519477 2.7794 1.93418e-006 1.65929e-005 -0.064257 18.2476 71.8304 -17.724 13.6958 12.0697 2.28414 -13.0247 9.09391 -53.2142 -63.71 -49.8635 -177.226 11.7277 75.6166 -11.9206 -14.9455 13.7478 -7.11738 -6.99199 -0.344762 -5.29225 -63.6506 2.79864 -23.508 4.63459e-006 -5.90926e-006 9.38602 -15.306 2.59521 5.52689 33.0439 -2.21139 -1.08194 -5.87761 2.54873 -2.87388 -6.20329 4.14719 -90 0 0 -169.815 16.2792 -6.0756 -6.28842 -5.75164 1.98535 3.95183 -1.19856 1.8947 -90 0 0
84.4158 96.8001 -8.72667 -49.2407 -83.2233 -141.319 -7.9596 -1.59521 4.08384 19.4443 -0.296359 -0.519721 2.7794 1.93418e-006 1.65929e-005 -0.0904142 18.3137 71.9842 -17.6991 13.7847 12.1843 2.2331 -12.6323 9.13614 -53.5093 -63.8911 -50.2181 -177.195 11.5168 75.5186 -12.1111 -14.7927 13.6965 -7.0024 -6.98773 -0.343741 -5.26037 -63.5529 2.89068 -23.508 4.63459e-006 -5.90926e-006 9.62906 -15.0464 2.9912 5.1222 33.3333 -2.27973 -0.0627767 -5.89919 2.66015 -3.07911 -6.52742 4.30121 -90 0 0 -169.598 16.1801 -5.82945 -6.64671 -5.75786 1.93154 4.08242 -1.26796 1.8161 -90 0 0
84.3449 96.7432 -8.77492 -49.9161 -83.1184 -141.872 -8.05948 -1.49057 3.80296 19.4482 -0.296391 -0.519365 2.7794 1.93418e-006 1.65929e-005 -0.132571 18.2891 72.1401 -17.6614 13.7115 12.2392 2.18832 -12.2919 9.17268 -54.01 -64.0861 -50.9205 -177.16 11.345 75.4093 -12.17 -14.841 13.664 -7.00882 -6.98387 -0.342607 -5.1091 -63.5359 3.04218 -23.508 4.63459e-006 -5.90926e-006 9.66668 -14.8756 3.23048 5.31333 33.1492 -2.55443 -0.257434 -5.99529 2.58114 -2.62904 -6.48939 4.47519 -90 0 0 -169.361 16.0505 -5.6663 -7.15467 -5.76522 1.85495 4.31462 -1.28875 1.81888 -90 0 0
84.3376 96.7021 -8.84719 -49.5022 -83.0761 -141.399 -8.06576 -1.46678 3.61664 19.4315 -0.296088 -0.518511 2.7794 1.93418e-006 1.65929e-005 -0.16694 18.2092 72.2221 -17.6916 13.7801 12.2901 2.1871 -12.2781 9.17414 -53.7438 -64.1769 -50.7327 -177.137 11.2501 75.3324 -12.2015 -14.9219 13.633 -7.06484 -6.98226 -0.341374 -5.31563 -63.6337 2.75976 -23.508 4.63459e-006 -5.90926e-006 9.56861 -14.8155 3.32932 5.35914 33.1512 -2.59552 -0.111467 -6.0755 2.56359 -2.54943 -6.55028 4.51934 -90 0 0 -169.116 15.9733 -5.60723 -7.46386 -5.77414 1.80937 4.40739 -1.20789 1.85588 -90 0 0
84.3493 96.6773 -8.91863 -48.3176 -83.1596 -140.159 -8.09488 -1.54836 3.48219 19.4403 -0.295491 -0.517259 2.7794 1.93418e-006 1.65929e-005 -0.181443 18.0964 72.2016 -17.7817 13.9634 12.3533 2.20621 -12.416 9.1594 -53.5286 -64.1106 -50.5479 -177.123 11.2678 75.2845 -12.2945 -15.0076 13.5844 -6.99562 -6.98175 -0.340055 -5.45446 -63.5226 2.66748 -23.508 4.63459e-006 -5.90926e-006 9.36132 -14.891 3.31686 5.50759 33.2151 -2.64138 -0.0950702 -6.15783 2.52814 -2.5777 -6.74221 4.51085 -90 0 0 -169.079 16.0864 -5.57243 -7.37181 -5.7884 1.82718 4.29686 -1.13372 1.8859 -90 0 0
84.4032 96.6732 -8.99932 -46.5549 -83.3025 -138.352 -8.15705 -1.66342 3.37358 19.4983 -0.294643 -0.515709 2.7794 1.93418e-006 1.65929e-005 -0.193264 17.9568 72.1483 -17.8805 13.899 12.3826 2.17375 -12.1697 9.18583 -53.8388 -64.136 -50.7583 -177.115 11.3218 75.2562 -12.3099 -15.0782 13.4832 -6.9764 -6.98151 -0.338662 -5.54084 -63.5996 2.56417 -23.508 4.63459e-006 -5.90926e-006 9.18086 -14.9046 3.24666 5.74216 33.3884 -2.68288 -0.248356 -6.18695 2.49796 -2.48899 -7.19875 4.44504 -90 0 0 -169.029 16.3149 -5.59646 -7.25481 -5.79481 1.84653 4.12455 -1.07685 2.03436 -90 0 0
84.485 96.6725 -9.06465 -44.7634 -83.4401 -136.525 -8.18836 -1.77388 3.2924 19.5392 -0.293587 -0.51396 2.7794 1.93418e-006 1.65929e-005 -0.207993 17.8144 72.1054 -17.966 13.9531 12.3766 2.18919 -12.2803 9.17388 -53.6761 -64.1378 -50.7706 -177.12 11.3872 75.2735 -12.3281 -15.1612 13.3451 -6.9399 -6.98115 -0.337207 -5.44351 -63.5113 2.70079 -23.508 4.63459e-006 -5.90926e-006 8.93327 -14.9064 3.18542 5.81 33.1019 -2.6396 -0.185381 -6.1842 2.50779 -2.49269 -7.19369 4.38315 -90 0 0 -169.01 16.6007 -5.64291 -7.08605 -5.79737 1.87326 4.0185 -1.11224 2.05724 -90 0 0
